<svg xmlns="http://www.w3.org/2000/svg" viewBox="0 0 640 640" role="img" aria-label="FlacronAI">
<title>FlacronAI</title>
<path d="M 366.337 223.931 C 364.047 224.305, 361.572 225.090, 360.837 225.675 C 360.101 226.260, 357.858 227.035, 355.850 227.396 C 353.843 227.757, 351.651 228.716, 350.978 229.526 C 350.305 230.337, 349.281 231, 348.701 231 C 344.161 231, 324.162 248.784, 317.782 258.494 C 315.977 261.241, 313.712 264.279, 312.750 265.244 C 311.788 266.210, 311 267.455, 311 268.010 C 311 268.566, 309.405 271.290, 307.455 274.065 C 305.505 276.839, 303.491 280.209, 302.979 281.554 C 302.468 282.899, 301.588 284, 301.025 284 C 300.461 284, 300 284.512, 300 285.139 C 300 285.765, 297.584 289.927, 294.631 294.389 C 289.605 301.981, 288.094 304.470, 283.797 312.243 C 282.860 313.938, 281.711 315.589, 281.244 315.912 C 280.777 316.235, 279.336 318.300, 278.043 320.500 C 276.750 322.700, 274.080 326.975, 272.110 330 C 267.795 336.627, 265.495 340.579, 263.818 344.250 C 263.127 345.762, 262.243 347, 261.854 347 C 261.465 347, 259.674 349.587, 257.874 352.750 C 256.074 355.913, 252.891 360.975, 250.802 364 C 248.712 367.025, 247.002 370.063, 247.001 370.750 C 247.001 371.438, 246.540 372, 245.979 372 C 245.417 372, 244.412 373.238, 243.746 374.750 C 243.080 376.262, 240.840 379.975, 238.769 383 C 236.697 386.025, 235.002 388.833, 235.001 389.239 C 235.001 389.646, 233.201 392.571, 231.001 395.739 C 228.802 398.908, 227.002 402.063, 227.001 402.750 C 227.001 403.438, 226.540 404, 225.979 404 C 225.417 404, 224.412 405.238, 223.746 406.750 C 223.080 408.262, 220.840 411.975, 218.769 415 C 216.697 418.025, 215.002 420.810, 215.001 421.188 C 215.001 421.567, 211.625 426.882, 207.500 433 C 203.375 439.118, 200 444.522, 200 445.010 C 200 445.498, 198.875 447.111, 197.500 448.595 C 196.125 450.078, 195 451.672, 195 452.135 C 195 452.599, 193.201 455.571, 191.001 458.739 C 188.802 461.908, 187.002 464.820, 187.001 465.211 C 187.001 465.603, 184.477 469.627, 181.394 474.155 C 178.311 478.684, 175.545 483.022, 175.248 483.796 C 174.951 484.570, 171.511 490.095, 167.604 496.074 C 156.776 512.645, 152.568 519.334, 151.801 521.199 C 151.417 522.133, 150.179 523.821, 149.051 524.949 C 147.923 526.077, 147 527.445, 147 527.989 C 147 528.534, 145.201 531.571, 143.001 534.739 C 140.802 537.908, 139.002 541.063, 139.001 541.750 C 139.001 542.438, 138.562 543, 138.026 543 C 137.490 543, 136.347 544.237, 135.486 545.750 C 134.625 547.263, 132.845 550.300, 131.529 552.500 C 130.214 554.700, 128.374 557.850, 127.440 559.500 C 126.507 561.150, 122.426 567.502, 118.372 573.615 C 110.696 585.188, 109.686 588.226, 112.934 589.965 C 115.396 591.282, 168.788 591.310, 182.245 590 C 187.605 589.479, 193.005 588.412, 194.245 587.630 C 195.485 586.848, 197.625 585.895, 199 585.512 C 210.481 582.312, 226.482 570.486, 236.224 558.002 C 239.443 553.876, 242.960 549.449, 244.039 548.165 C 245.117 546.881, 246 545.414, 246 544.905 C 246 544.396, 247.575 541.739, 249.500 539 C 251.425 536.261, 253.001 533.678, 253.001 533.260 C 253.002 532.842, 254.802 529.908, 257.001 526.739 C 259.201 523.571, 261 520.696, 261 520.351 C 261 520.005, 263.444 516.050, 266.430 511.562 C 269.417 507.073, 272.454 502.079, 273.180 500.464 C 273.906 498.849, 275.288 496.734, 276.250 495.764 C 277.212 494.794, 278 493.555, 278 493.011 C 278 492.466, 279.799 489.429, 281.999 486.261 C 284.198 483.092, 285.998 480.158, 285.999 479.740 C 285.999 479.322, 287.575 476.739, 289.500 474 C 291.425 471.261, 293 468.711, 293 468.334 C 293 467.956, 294.922 464.689, 297.270 461.073 C 302.897 452.411, 303.784 450.962, 305.257 448.014 C 305.941 446.646, 307.288 444.734, 308.250 443.764 C 309.212 442.794, 310 441.545, 310 440.990 C 310 440.434, 311.595 437.710, 313.545 434.935 C 315.495 432.161, 317.509 428.791, 318.021 427.446 C 318.532 426.101, 319.368 425, 319.877 425 C 320.387 425, 321.308 423.762, 321.924 422.250 C 323.470 418.455, 326.163 414.022, 328.250 411.834 C 329.212 410.825, 330 409.555, 330 409.011 C 330 408.466, 331.799 405.429, 333.999 402.261 C 336.198 399.092, 337.998 396.190, 337.999 395.812 C 337.999 395.433, 341.375 390.118, 345.500 384 C 349.625 377.882, 353 372.617, 353 372.300 C 353 371.593, 363.263 356.322, 365.724 353.367 C 368.804 349.668, 372.311 348.592, 380.300 348.894 C 384.219 349.042, 389.012 354.068, 393.632 362.871 C 395.759 366.926, 399.384 373.676, 401.686 377.871 C 403.988 382.067, 406.162 386.175, 406.517 387 C 408.104 390.687, 409.056 392.605, 409.993 394 C 410.548 394.825, 411.450 396.625, 411.998 398 C 412.547 399.375, 413.447 401.175, 413.998 402 C 414.550 402.825, 415.474 404.625, 416.052 406 C 416.630 407.375, 418.194 410.300, 419.528 412.500 C 420.861 414.700, 422.427 417.625, 423.006 419 C 424.377 422.253, 424.646 422.759, 427.524 427.500 C 428.860 429.700, 430.413 432.625, 430.976 434 C 431.538 435.375, 432.450 437.175, 433.002 438 C 433.553 438.825, 434.453 440.625, 435.002 442 C 435.550 443.375, 436.428 445.175, 436.952 446 C 437.477 446.825, 439.531 450.650, 441.517 454.500 C 443.503 458.350, 445.550 462.175, 446.065 463 C 446.580 463.825, 447.462 465.625, 448.024 467 C 448.587 468.375, 450.140 471.300, 451.476 473.500 C 452.812 475.700, 454.188 478.175, 454.534 479 C 455.947 482.371, 457.039 484.580, 457.993 486 C 458.548 486.825, 459.462 488.625, 460.024 490 C 460.587 491.375, 462.139 494.300, 463.472 496.500 C 464.806 498.700, 466.370 501.625, 466.948 503 C 467.526 504.375, 468.439 506.175, 468.977 507 C 469.515 507.825, 471.570 511.650, 473.543 515.500 C 475.516 519.350, 479.096 526.100, 481.497 530.500 C 483.899 534.900, 486.345 539.625, 486.932 541 C 487.519 542.375, 488.431 544.175, 488.960 545 C 489.489 545.825, 491.520 549.740, 493.474 553.699 C 495.428 557.659, 497.436 561.151, 497.936 561.461 C 498.437 561.770, 499.141 563.365, 499.501 565.006 C 499.862 566.646, 500.685 568.328, 501.331 568.744 C 501.977 569.160, 503.855 571.489, 505.503 573.921 C 508.501 578.343, 517.222 586, 519.261 586 C 519.856 586, 521.076 586.664, 521.974 587.476 C 522.871 588.288, 526.731 589.404, 530.552 589.956 C 538.264 591.071, 606.051 591.201, 610 590.109 C 612.930 589.299, 613.857 585.672, 611.774 583.168 C 611.011 582.250, 609.853 580.375, 609.201 579 C 608.548 577.625, 607.561 575.825, 607.007 575 C 606.452 574.175, 605.550 572.375, 605.002 571 C 604.453 569.625, 603.553 567.825, 603.002 567 C 602.450 566.175, 601.538 564.375, 600.976 563 C 600.413 561.625, 598.861 558.700, 597.528 556.500 C 596.194 554.300, 594.630 551.375, 594.052 550 C 593.474 548.625, 592.548 546.825, 591.993 546 C 591.039 544.580, 589.947 542.371, 588.534 539 C 588.188 538.175, 586.812 535.700, 585.476 533.500 C 584.140 531.300, 582.587 528.375, 582.024 527 C 581.462 525.625, 580.550 523.825, 579.998 523 C 579.447 522.175, 578.547 520.375, 577.998 519 C 577.450 517.625, 576.572 515.825, 576.048 515 C 575.523 514.175, 573.458 510.350, 571.459 506.500 C 569.459 502.650, 566.760 497.700, 565.459 495.500 C 564.159 493.300, 562.812 490.825, 562.466 490 C 561.210 487.005, 559.996 484.469, 559.114 483 C 558.619 482.175, 557.719 480.375, 557.114 479 C 556.509 477.625, 555.561 475.825, 555.007 475 C 554.452 474.175, 553.538 472.375, 552.976 471 C 552.413 469.625, 550.861 466.700, 549.528 464.500 C 548.194 462.300, 546.630 459.375, 546.052 458 C 545.474 456.625, 544.548 454.825, 543.993 454 C 543.439 453.175, 542.491 451.375, 541.886 450 C 541.281 448.625, 540.375 446.825, 539.873 446 C 539.371 445.175, 538.287 443.150, 537.465 441.500 C 536.643 439.850, 535.527 437.825, 534.984 437 C 534.442 436.175, 533.550 434.375, 533.002 433 C 532.453 431.625, 531.553 429.825, 531.002 429 C 530.450 428.175, 529.526 426.375, 528.948 425 C 528.370 423.625, 526.832 420.700, 525.530 418.500 C 524.227 416.300, 521.548 411.350, 519.576 407.500 C 517.603 403.650, 515.590 399.825, 515.102 399 C 514.613 398.175, 513.719 396.375, 513.114 395 C 512.509 393.625, 511.561 391.825, 511.007 391 C 510.452 390.175, 509.538 388.375, 508.976 387 C 508.413 385.625, 506.861 382.700, 505.528 380.500 C 504.194 378.300, 502.616 375.375, 502.022 374 C 500.478 370.431, 500.423 370.324, 495.583 361.500 C 493.170 357.100, 489.544 350.350, 487.525 346.500 C 485.507 342.650, 482.787 337.700, 481.480 335.500 C 480.172 333.300, 478.630 330.375, 478.052 329 C 477.474 327.625, 476.550 325.825, 475.998 325 C 475.447 324.175, 474.515 322.376, 473.928 321.002 C 473.341 319.628, 472.270 317.828, 471.549 317.002 C 470.827 316.176, 469.905 314.375, 469.500 313 C 469.095 311.625, 468.185 309.825, 467.477 309 C 466.769 308.175, 464.771 304.800, 463.036 301.500 C 461.301 298.200, 458.804 293.700, 457.488 291.500 C 456.172 289.300, 454.812 286.825, 454.466 286 C 453.064 282.655, 451.844 280.308, 449.528 276.500 C 448.191 274.300, 446.517 271.375, 445.808 270 C 444.169 266.822, 440.700 261.603, 438.894 259.597 C 438.127 258.746, 436.600 256.852, 435.500 255.388 C 433.604 252.864, 422.040 241.199, 417.788 237.521 C 416.049 236.016, 405.208 229.688, 402.500 228.597 C 389.944 223.535, 378.104 222.007, 366.337 223.931" stroke="none" fill="#002A64" fill-rule="evenodd"/>
<path d="M 331 49.041 C 121.074 49.601, 117.501 49.675, 109.800 53.618 C 108.314 54.378, 106.374 55, 105.488 55 C 104.032 55, 94.743 58.836, 91 60.982 C 90.175 61.456, 86.920 63.221, 83.766 64.905 C 80.612 66.590, 77.154 68.763, 76.080 69.734 C 75.006 70.705, 72.909 72.400, 71.420 73.500 C 67.645 76.289, 59.206 84.637, 54.740 90 C 52.679 92.475, 50.407 95.175, 49.691 96 C 45.869 100.404, 37.554 116.609, 34.555 125.500 C 28.156 144.469, 28.691 123.709, 28.312 367.716 L 27.969 587.933 30.935 589.466 C 39.387 593.837, 64.469 588.170, 79.500 578.494 C 92.846 569.902, 111.405 549.202, 113.599 540.461 C 113.927 539.153, 114.827 537.558, 115.598 536.919 C 116.369 536.279, 117 534.881, 117 533.813 C 117 532.745, 117.896 529.762, 118.990 527.185 C 122.994 517.760, 123.273 511.596, 123.897 418.484 L 124.500 328.468 127.658 323.702 C 129.394 321.081, 132.544 317.713, 134.658 316.218 L 138.500 313.500 200.719 313 L 262.938 312.500 265.933 309 C 267.581 307.075, 269.216 304.662, 269.567 303.637 C 269.919 302.612, 272.635 298.207, 275.603 293.848 C 278.571 289.489, 281 285.654, 281 285.326 C 281 284.998, 284.487 279.515, 288.750 273.140 C 293.012 266.766, 296.950 260.611, 297.500 259.463 C 299.880 254.496, 306.210 246.860, 315.948 237.208 C 324.637 228.597, 326.219 226.570, 325.339 225.176 C 324.363 223.629, 316.580 223.480, 224.141 223.245 L 124 222.990 124.020 207.745 C 124.044 189.477, 125.279 179.732, 128.011 176.259 C 129.105 174.868, 130 173.216, 130 172.588 C 130 170.971, 138.007 162.158, 141 160.480 C 142.375 159.710, 144.625 158.524, 146 157.846 C 147.375 157.168, 149.182 156.051, 150.016 155.363 C 153.882 152.176, 165.177 151.920, 301.243 151.939 C 443.096 151.958, 455.002 151.638, 462.904 147.607 C 464.332 146.878, 468.200 145.025, 471.500 143.489 C 482.796 138.231, 493.468 128.131, 503.277 113.415 C 506.975 107.868, 510 102.805, 510 102.165 C 510 101.524, 510.460 101, 511.021 101 C 511.583 101, 512.594 99.763, 513.267 98.250 C 513.940 96.737, 517.668 90.764, 521.552 84.975 C 525.436 79.186, 528.878 73.761, 529.201 72.919 C 529.524 72.077, 532.311 67.684, 535.394 63.155 C 538.477 58.627, 541 54.335, 541 53.616 C 541 51.923, 538.051 49.390, 535.500 48.891 C 534.400 48.676, 442.375 48.743, 331 49.041 M 366.257 470.955 C 365.024 472.519, 363.699 474.632, 363.314 475.649 C 362.929 476.667, 360.901 479.975, 358.808 483 C 356.715 486.025, 355.002 488.820, 355.001 489.211 C 355.001 489.603, 352.477 493.627, 349.394 498.155 C 346.311 502.684, 343.524 507.088, 343.201 507.944 C 342.878 508.800, 340.901 511.975, 338.808 515 C 336.715 518.025, 335.002 520.842, 335.001 521.260 C 335.001 521.678, 333.405 524.290, 331.455 527.065 C 329.505 529.839, 327.491 533.209, 326.979 534.554 C 326.468 535.899, 325.632 537, 325.123 537 C 324.613 537, 323.700 538.237, 323.095 539.750 C 322.489 541.263, 321.108 543.850, 320.025 545.500 C 318.013 548.566, 314.692 554.075, 311.986 558.836 C 311.153 560.301, 308.790 564.022, 306.736 567.104 C 304.681 570.185, 303 572.993, 303 573.343 C 303 573.693, 301.201 576.571, 299.001 579.739 C 290.676 591.733, 286.405 591, 364.637 591 C 432.274 591, 435 590.854, 435 587.244 C 435 585.824, 425.893 566.778, 422.929 562 C 422.417 561.175, 421.538 559.375, 420.976 558 C 420.413 556.625, 418.860 553.700, 417.524 551.500 C 416.188 549.300, 414.812 546.825, 414.466 546 C 413.053 542.629, 411.961 540.420, 411.007 539 C 410.452 538.175, 409.534 536.375, 408.967 535 C 408.399 533.625, 405.933 528.900, 403.486 524.500 C 401.038 520.100, 398.578 515.375, 398.019 514 C 397.459 512.625, 396.561 510.825, 396.024 510 C 394.983 508.403, 393.316 505.261, 385.266 489.724 C 382.480 484.347, 379.761 479.397, 379.223 478.724 C 378.685 478.051, 377.913 476.375, 377.507 475 C 375.502 468.201, 369.992 466.219, 366.257 470.955" stroke="none" fill="#FD4403" fill-rule="evenodd"/>
</svg>
